<?xml version="1.0" standalone="no"?>
<!DOCTYPE svg PUBLIC "-//W3C//DTD SVG 20010904//EN"
 "http://www.w3.org/TR/2001/REC-SVG-20010904/DTD/svg10.dtd">
<svg version="1.0" xmlns="http://www.w3.org/2000/svg"
 width="700.000000pt" height="700.000000pt" viewBox="0 0 700.000000 700.000000"
 preserveAspectRatio="xMidYMid meet">
<metadata>
Created by potrace 1.14, written by Peter Selinger 2001-2017
</metadata>
<g transform="translate(0.000000,700.000000) scale(0.100000,-0.100000)"
fill="#000000" stroke="none">
<path d="M3500 5250 l0 -1750 -1751 0 -1751 0 6 -142 c4 -79 8 -156 10 -173 2
-16 7 -57 11 -90 7 -64 13 -112 21 -160 3 -16 7 -41 9 -55 16 -119 143 -569
184 -655 6 -11 22 -48 36 -83 38 -93 139 -298 180 -366 19 -32 35 -61 35 -63
0 -15 203 -306 279 -400 193 -239 430 -468 651 -628 30 -22 56 -43 58 -47 2
-5 8 -8 13 -8 6 0 38 -19 72 -43 60 -42 138 -90 222 -138 52 -29 312 -159 320
-159 3 0 24 -9 48 -19 197 -89 562 -193 797 -226 24 -4 47 -8 50 -10 3 -2 39
-6 80 -10 41 -4 89 -9 105 -13 17 -3 882 -7 1923 -9 l1892 -4 0 3501 0 3500
-1750 0 -1750 0 0 -1750z"/>
</g>
</svg>
